<svg xmlns="http://www.w3.org/2000/svg" width="45" height="64" viewBox="0 0 45 64">
  <g id="Group_3410" data-name="Group 3410" transform="translate(-995 -276)">
    <g id="Group_3411" data-name="Group 3411">
      <g id="Polygon_8" data-name="Polygon 8" transform="translate(995 285)" fill="rgba(31,14,136,0.6)">
        <path d="M 31.61271095275879 44.5 L 13.38729000091553 44.5 L 0.5000001192092896 31.61269950866699 L 0.5000098943710327 13.38729000091553 L 13.38729953765869 0.5000001192092896 L 31.61270904541016 0.5000098943710327 L 44.5 13.38729953765869 L 44.5 31.61271095275879 L 31.61271095275879 44.5 Z" stroke="none"/>
        <path d="M 13.59441947937012 1 L 1 13.59440994262695 L 1 31.40558052062988 L 13.59440994262695 44 L 31.40558052062988 44 L 44 31.40559005737305 L 44 13.59441947937012 L 31.40557861328125 1 L 13.59441947937012 1 M 13.18020057678223 0 L 31.81980133056641 0 L 45 13.18020057678223 L 45 31.81980895996094 L 31.81980133056641 45 L 13.18018913269043 45 L 0 31.81980133056641 L 0 13.18018913269043 L 13.18020057678223 0 Z" stroke="none" fill="#201786"/>
      </g>
      <text id="_" data-name="+" transform="translate(1002 327)" fill="#fff" stroke="rgba(151,151,151,0.17)" stroke-width="1" font-size="55" font-family="ArialMT, Arial" letter-spacing="-0.024em" opacity="0.999"><tspan x="0" y="0">+</tspan></text>
    </g>
  </g>
</svg>
