<svg xmlns="http://www.w3.org/2000/svg" xmlns:xlink="http://www.w3.org/1999/xlink">

    <symbol id="profile" viewBox="0 0 45 45">
		 <g id="Polygon_23" data-name="Polygon 23" fill="rgba(31,14,136,0.5)">
            <path d="M 31.5609302520752 44.375 L 13.4390697479248 44.375 L 0.6250001192092896 31.56092071533203 L 0.6250098347663879 13.4390697479248 L 13.43908023834229 0.6250001192092896 L 31.5609302520752 0.6250098347663879 L 44.375 13.43908023834229 L 44.375 31.5609302520752 L 31.5609302520752 44.375 Z" stroke="none"/>
            <path d="M 13.69795989990234 1.25 L 1.25 13.69795036315918 L 1.25 31.30204010009766 L 13.69795036315918 43.75 L 31.30204010009766 43.75 L 43.75 31.30204963684082 L 43.75 13.69795989990234 L 31.30204010009766 1.25 L 13.69795989990234 1.25 M 13.18020057678223 0 L 31.81980133056641 0 L 45 13.18020057678223 L 45 31.81980895996094 L 31.81980133056641 45 L 13.18018913269043 45 L 0 31.81980133056641 L 0 13.18018913269043 L 13.18020057678223 0 Z" fill="#201786"/>
        </g>
    </symbol>
    <symbol id="cash" viewBox="0 0 45 45">
        <g id="Polygon_10" data-name="Polygon 10" fill="rgba(22,154,154,0.2)">
            <path d="M 31.5609302520752 44.375 L 13.4390697479248 44.375 L 0.6250001192092896 31.56092071533203 L 0.6250098347663879 13.4390697479248 L 13.43908023834229 0.6250001192092896 L 31.5609302520752 0.6250098347663879 L 44.375 13.43908023834229 L 44.375 31.5609302520752 L 31.5609302520752 44.375 Z" stroke="none"/>
            <path d="M 13.69795989990234 1.25 L 1.25 13.69795036315918 L 1.25 31.30204010009766 L 13.69795036315918 43.75 L 31.30204010009766 43.75 L 43.75 31.30204963684082 L 43.75 13.69795989990234 L 31.30204010009766 1.25 L 13.69795989990234 1.25 M 13.18020057678223 0 L 31.81980133056641 0 L 45 13.18020057678223 L 45 31.81980895996094 L 31.81980133056641 45 L 13.18018913269043 45 L 0 31.81980133056641 L 0 13.18018913269043 L 13.18020057678223 0 Z" stroke="none" fill="#229a99"/>
        </g>
    </symbol>
    <symbol id="property" viewBox="0 0 45 45">
      <g id="Polygon_11" data-name="Polygon 11" fill="rgba(208,85,102,0.2)">
        <path d="M 31.5609302520752 44.375 L 13.4390697479248 44.375 L 0.6250001192092896 31.56092071533203 L 0.6250098347663879 13.4390697479248 L 13.43908023834229 0.6250001192092896 L 31.5609302520752 0.6250098347663879 L 44.375 13.43908023834229 L 44.375 31.5609302520752 L 31.5609302520752 44.375 Z" stroke="none"/>
        <path d="M 13.69795989990234 1.25 L 1.25 13.69795036315918 L 1.25 31.30204010009766 L 13.69795036315918 43.75 L 31.30204010009766 43.75 L 43.75 31.30204963684082 L 43.75 13.69795989990234 L 31.30204010009766 1.25 L 13.69795989990234 1.25 M 13.18020057678223 0 L 31.81980133056641 0 L 45 13.18020057678223 L 45 31.81980895996094 L 31.81980133056641 45 L 13.18018913269043 45 L 0 31.81980133056641 L 0 13.18018913269043 L 13.18020057678223 0 Z" stroke="none" fill="#ce5668"/>
    </g>
    </symbol>
    <symbol id="investment" viewBox="0 0 45 45">
        <g id="Polygon_12" data-name="Polygon 12" fill="rgba(29,119,29,0.2)">
            <path d="M 31.5609302520752 44.375 L 13.4390697479248 44.375 L 0.6250001192092896 31.56092071533203 L 0.6250098347663879 13.4390697479248 L 13.43908023834229 0.6250001192092896 L 31.5609302520752 0.6250098347663879 L 44.375 13.43908023834229 L 44.375 31.5609302520752 L 31.5609302520752 44.375 Z" stroke="none"/>
            <path d="M 13.69795989990234 1.25 L 1.25 13.69795036315918 L 1.25 31.30204010009766 L 13.69795036315918 43.75 L 31.30204010009766 43.75 L 43.75 31.30204963684082 L 43.75 13.69795989990234 L 31.30204010009766 1.25 L 13.69795989990234 1.25 M 13.18020057678223 0 L 31.81980133056641 0 L 45 13.18020057678223 L 45 31.81980895996094 L 31.81980133056641 45 L 13.18018913269043 45 L 0 31.81980133056641 L 0 13.18018913269043 L 13.18020057678223 0 Z" stroke="none" fill="#227623"/>
        </g>
    </symbol>
    <symbol id="pension" viewBox="0 0 45 45">
        <g id="Polygon_13" data-name="Polygon 13" fill="rgba(230,201,44,0.2)">
            <path d="M 31.5609302520752 44.375 L 13.4390697479248 44.375 L 0.6250001192092896 31.56092071533203 L 0.6250098347663879 13.4390697479248 L 13.43908023834229 0.6250001192092896 L 31.5609302520752 0.6250098347663879 L 44.375 13.43908023834229 L 44.375 31.5609302520752 L 31.5609302520752 44.375 Z" stroke="none"/>
            <path d="M 13.69795989990234 1.25 L 1.25 13.69795036315918 L 1.25 31.30204010009766 L 13.69795036315918 43.75 L 31.30204010009766 43.75 L 43.75 31.30204963684082 L 43.75 13.69795989990234 L 31.30204010009766 1.25 L 13.69795989990234 1.25 M 13.18020057678223 0 L 31.81980133056641 0 L 45 13.18020057678223 L 45 31.81980895996094 L 31.81980133056641 45 L 13.18018913269043 45 L 0 31.81980133056641 L 0 13.18018913269043 L 13.18020057678223 0 Z" stroke="none" fill="#e5c83f"/>
        </g>
    </symbol>
    <symbol id="business" viewBox="0 0 45 45">
        <g id="Polygon_14" data-name="Polygon 14" fill="rgba(38,38,38,0.2)">
            <path d="M 31.5609302520752 44.375 L 13.4390697479248 44.375 L 0.6250001192092896 31.56092071533203 L 0.6250098347663879 13.4390697479248 L 13.43908023834229 0.6250001192092896 L 31.5609302520752 0.6250098347663879 L 44.375 13.43908023834229 L 44.375 31.5609302520752 L 31.5609302520752 44.375 Z" stroke="none"/>
            <path d="M 13.69795989990234 1.25 L 1.25 13.69795036315918 L 1.25 31.30204010009766 L 13.69795036315918 43.75 L 31.30204010009766 43.75 L 43.75 31.30204963684082 L 43.75 13.69795989990234 L 31.30204010009766 1.25 L 13.69795989990234 1.25 M 13.18020057678223 0 L 31.81980133056641 0 L 45 13.18020057678223 L 45 31.81980895996094 L 31.81980133056641 45 L 13.18018913269043 45 L 0 31.81980133056641 L 0 13.18018913269043 L 13.18020057678223 0 Z" stroke="none" fill="#262626"/>
        </g>
    </symbol>
    <symbol id="misc" viewBox="0 0 45 45">
        <g id="Polygon_15" data-name="Polygon 15" fill="rgba(204,85,24,0.2)">
            <path d="M 31.5609302520752 44.375 L 13.4390697479248 44.375 L 0.6250001192092896 31.56092071533203 L 0.6250098347663879 13.4390697479248 L 13.43908023834229 0.6250001192092896 L 31.5609302520752 0.6250098347663879 L 44.375 13.43908023834229 L 44.375 31.5609302520752 L 31.5609302520752 44.375 Z" stroke="none"/>
            <path d="M 13.69795989990234 1.25 L 1.25 13.69795036315918 L 1.25 31.30204010009766 L 13.69795036315918 43.75 L 31.30204010009766 43.75 L 43.75 31.30204963684082 L 43.75 13.69795989990234 L 31.30204010009766 1.25 L 13.69795989990234 1.25 M 13.18020057678223 0 L 31.81980133056641 0 L 45 13.18020057678223 L 45 31.81980895996094 L 31.81980133056641 45 L 13.18018913269043 45 L 0 31.81980133056641 L 0 13.18018913269043 L 13.18020057678223 0 Z" stroke="none" fill="#cc5518"/>
        </g>
    </symbol>
</svg>